<svg viewBox="0 0 132 36" fill="none" xmlns="http://www.w3.org/2000/svg" xmlns:xlink="http://www.w3.org/1999/xlink" x="0" y="0"><g id="Container_2">
<g id="Container_3">
<g id="Container_4">
<g id="Component 2">
<path id="Vector" d="M15.063,30.5c-1.188,0 -2.24,-0.375 -3.157,-1.125c-0.916,-0.75 -1.489,-1.7083 -1.718,-2.875c-1.105,0.3542 -2.219,0.3333 -3.344,-0.0625c-1.125,-0.3958 -1.99,-1.0833 -2.594,-2.0625c-0.625,-1 -0.854,-2.1094 -0.687,-3.3281c0.166,-1.2188 0.708,-2.2344 1.625,-3.0469c-0.875,-0.7917 -1.402,-1.7708 -1.579,-2.9375c-0.177,-1.1667 0.016,-2.25 0.579,-3.25c0.562,-1 1.411,-1.724 2.546,-2.1719c1.136,-0.4479 2.266,-0.4948 3.391,-0.1406c0.229,-1.1667 0.802,-2.125 1.719,-2.875c0.916,-0.75 1.969,-1.125 3.156,-1.125c1.188,0 2.24,0.375 3.156,1.125c0.917,0.75 1.49,1.7083 1.719,2.875c1.167,-0.3542 2.297,-0.3229 3.391,0.0938c1.093,0.4166 1.942,1.1562 2.547,2.2187c0.562,1.0417 0.765,2.1302 0.609,3.2656c-0.156,1.1354 -0.693,2.1094 -1.609,2.9219c0.916,0.8125 1.463,1.8177 1.64,3.0156c0.177,1.1979 -0.015,2.3177 -0.578,3.3594c-0.604,1.0625 -1.453,1.7708 -2.547,2.125c-1.094,0.3542 -2.224,0.3542 -3.39,0c-0.23,1.1667 -0.803,2.125 -1.719,2.875c-0.917,0.75 -1.969,1.125 -3.156,1.125zM15.063,28c0.979,0 1.713,-0.4219 2.203,-1.2656c0.489,-0.8438 0.484,-1.6719 -0.016,-2.4844l-0.875,-1.4375c-0.229,0.0625 -0.448,0.1094 -0.656,0.1406c-0.209,0.0313 -0.427,0.0469 -0.656,0.0469c-0.209,0 -0.422,-0.0156 -0.641,-0.0469c-0.219,-0.0312 -0.443,-0.0781 -0.672,-0.1406l-0.875,1.4375c-0.5,0.8125 -0.505,1.6406 -0.016,2.4844c0.49,0.8437 1.224,1.2656 2.204,1.2656zM6.313,23c0.5,0.8542 1.234,1.2812 2.203,1.2812c0.968,0 1.692,-0.427 2.172,-1.2812l0.812,-1.4375c-0.167,-0.1667 -0.323,-0.3437 -0.469,-0.5313c-0.146,-0.1874 -0.271,-0.3854 -0.375,-0.5937c-0.104,-0.1875 -0.198,-0.3802 -0.281,-0.5781c-0.083,-0.1979 -0.156,-0.4011 -0.219,-0.6094h-1.656c-0.979,0 -1.708,0.4115 -2.187,1.2344c-0.48,0.8229 -0.48,1.6614 0,2.5156zM19.313,23c0.479,0.8542 1.203,1.2812 2.171,1.2812c0.969,0 1.704,-0.427 2.204,-1.2812c0.479,-0.8542 0.479,-1.6927 0,-2.5156c-0.48,-0.8229 -1.209,-1.2344 -2.188,-1.2344h-1.656c-0.042,0.2083 -0.11,0.4115 -0.203,0.6094c-0.094,0.1979 -0.193,0.3906 -0.297,0.5781c-0.104,0.2083 -0.229,0.4063 -0.375,0.5937c-0.146,0.1876 -0.302,0.3646 -0.469,0.5313zM10.156,16.75c0.063,-0.2292 0.141,-0.4531 0.235,-0.6719c0.093,-0.2187 0.192,-0.4219 0.297,-0.6093c0.104,-0.1876 0.223,-0.3646 0.359,-0.5313c0.135,-0.1667 0.286,-0.3333 0.453,-0.5l-0.812,-1.4375c-0.48,-0.8542 -1.204,-1.2812 -2.172,-1.2812c-0.969,0 -1.703,0.427 -2.203,1.2812c-0.48,0.8542 -0.48,1.6927 0,2.5156c0.479,0.8229 1.208,1.2344 2.187,1.2344zM21.5,16.75c0.979,0 1.708,-0.4115 2.188,-1.2344c0.479,-0.8229 0.479,-1.6614 0,-2.5156c-0.5,-0.8542 -1.235,-1.2812 -2.204,-1.2812c-0.968,0 -1.692,0.427 -2.171,1.2812l-0.813,1.4375c0.167,0.1667 0.318,0.3333 0.453,0.5c0.136,0.1667 0.255,0.3437 0.36,0.5313c0.104,0.1874 0.203,0.3906 0.296,0.6093c0.094,0.2188 0.172,0.4427 0.235,0.6719zM13.656,13.1875c0.229,-0.0625 0.453,-0.1094 0.672,-0.1406c0.219,-0.0313 0.443,-0.0469 0.672,-0.0469c0.229,0 0.453,0.0156 0.672,0.0469c0.219,0.0312 0.443,0.0781 0.672,0.1406l0.844,-1.4375c0.479,-0.8125 0.479,-1.6406 0,-2.4844c-0.48,-0.8437 -1.209,-1.2656 -2.188,-1.2656c-0.979,0 -1.708,0.4167 -2.187,1.25c-0.48,0.8333 -0.48,1.6667 0,2.5zM15,20.5c0.688,0 1.276,-0.2448 1.766,-0.7344c0.489,-0.4896 0.734,-1.0781 0.734,-1.7656c0,-0.6875 -0.245,-1.276 -0.734,-1.7656c-0.49,-0.4896 -1.078,-0.7344 -1.766,-0.7344c-0.687,0 -1.276,0.2448 -1.766,0.7344c-0.489,0.4896 -0.734,1.0781 -0.734,1.7656c0,0.6875 0.245,1.276 0.734,1.7656c0.49,0.4896 1.079,0.7344 1.766,0.7344z" fill="#EC1337"/>
</g>
</g>
</g>
<g id="Heading 2">
<path id="BerryBliss" d="M39.32,26v-14.9h6.3c1.027,0 1.907,0.1733 2.64,0.52c0.733,0.3467 1.293,0.8467 1.68,1.5c0.387,0.64 0.58,1.42 0.58,2.34c0,0.6533 -0.18,1.28 -0.54,1.88c-0.36,0.5867 -0.953,1.08 -1.78,1.48v-1.52c0.787,0.3067 1.393,0.6733 1.82,1.1c0.427,0.4267 0.72,0.8933 0.88,1.4c0.16,0.4933 0.24,1.0133 0.24,1.56c0,1.4667 -0.487,2.6067 -1.46,3.42c-0.973,0.8133 -2.327,1.22 -4.06,1.22zM42.42,23.3h3.56c0.627,0 1.127,-0.18 1.5,-0.54c0.373,-0.36 0.56,-0.8267 0.56,-1.4c0,-0.5867 -0.187,-1.06 -0.56,-1.42c-0.373,-0.36 -0.873,-0.54 -1.5,-0.54h-3.56zM42.42,16.7h3.42c0.48,0 0.86,-0.1333 1.14,-0.4c0.293,-0.28 0.44,-0.6467 0.44,-1.1c0,-0.4533 -0.147,-0.8133 -0.44,-1.08c-0.28,-0.28 -0.66,-0.42 -1.14,-0.42h-3.42zM57.669,26.24c-1.16,0 -2.167,-0.2533 -3.02,-0.76c-0.854,-0.52 -1.514,-1.2133 -1.98,-2.08c-0.467,-0.8667 -0.7,-1.8267 -0.7,-2.88c0,-1.0933 0.24,-2.0667 0.72,-2.92c0.493,-0.8533 1.153,-1.5267 1.98,-2.02c0.826,-0.4933 1.76,-0.74 2.8,-0.74c0.866,0 1.633,0.14 2.3,0.42c0.666,0.2667 1.226,0.6467 1.68,1.14c0.466,0.4933 0.82,1.0667 1.06,1.72c0.24,0.64 0.36,1.34 0.36,2.1c0,0.2133 -0.014,0.4267 -0.04,0.64c-0.014,0.2 -0.047,0.3733 -0.1,0.52h-8.18v-2.2h6.48l-1.42,1.04c0.133,-0.5733 0.126,-1.08 -0.02,-1.52c-0.147,-0.4533 -0.407,-0.8067 -0.78,-1.06c-0.36,-0.2667 -0.807,-0.4 -1.34,-0.4c-0.52,0 -0.967,0.1267 -1.34,0.38c-0.374,0.2533 -0.654,0.6267 -0.84,1.12c-0.187,0.4933 -0.26,1.0933 -0.22,1.8c-0.054,0.6133 0.02,1.1533 0.22,1.62c0.2,0.4667 0.506,0.8333 0.92,1.1c0.413,0.2533 0.913,0.38 1.5,0.38c0.533,0 0.986,-0.1067 1.36,-0.32c0.386,-0.2133 0.686,-0.5067 0.9,-0.88l2.4,1.14c-0.214,0.5333 -0.554,1 -1.02,1.4c-0.454,0.4 -0.994,0.7133 -1.62,0.94c-0.627,0.2133 -1.314,0.32 -2.06,0.32zM64.135,26v-10.92h2.8v2.62l-0.2,-0.38c0.24,-0.92 0.633,-1.54 1.18,-1.86c0.56,-0.3333 1.22,-0.5 1.98,-0.5h0.64v2.6h-0.94c-0.733,0 -1.327,0.2267 -1.78,0.68c-0.453,0.44 -0.68,1.0667 -0.68,1.88v5.88zM71.35,26v-10.92h2.8v2.62l-0.2,-0.38c0.24,-0.92 0.633,-1.54 1.18,-1.86c0.56,-0.3333 1.22,-0.5 1.98,-0.5h0.64v2.6h-0.94c-0.733,0 -1.327,0.2267 -1.78,0.68c-0.453,0.44 -0.68,1.0667 -0.68,1.88v5.88zM80.265,30.4c-0.32,0 -0.633,-0.0267 -0.94,-0.08c-0.293,-0.0533 -0.553,-0.14 -0.78,-0.26v-2.46c0.187,0.0533 0.407,0.1 0.66,0.14c0.253,0.04 0.487,0.06 0.7,0.06c0.587,0 1.007,-0.14 1.26,-0.42c0.253,-0.2667 0.46,-0.5733 0.62,-0.92l0.74,-1.7l-0.04,2.5l-4.8,-12.18h3.22l3.18,8.66h-1.2l3.18,-8.66h3.22l-4.68,11.94c-0.293,0.7467 -0.653,1.3733 -1.08,1.88c-0.427,0.5067 -0.913,0.88 -1.46,1.12c-0.533,0.2533 -1.133,0.38 -1.8,0.38zM90.316,26v-14.9h6.3c1.027,0 1.907,0.1733 2.64,0.52c0.733,0.3467 1.293,0.8467 1.68,1.5c0.387,0.64 0.58,1.42 0.58,2.34c0,0.6533 -0.18,1.28 -0.54,1.88c-0.36,0.5867 -0.953,1.08 -1.78,1.48v-1.52c0.787,0.3067 1.393,0.6733 1.82,1.1c0.427,0.4267 0.72,0.8933 0.88,1.4c0.16,0.4933 0.24,1.0133 0.24,1.56c0,1.4667 -0.487,2.6067 -1.46,3.42c-0.973,0.8133 -2.327,1.22 -4.06,1.22zM93.416,23.3h3.56c0.627,0 1.127,-0.18 1.5,-0.54c0.373,-0.36 0.56,-0.8267 0.56,-1.4c0,-0.5867 -0.187,-1.06 -0.56,-1.42c-0.373,-0.36 -0.873,-0.54 -1.5,-0.54h-3.56zM93.416,16.7h3.42c0.48,0 0.86,-0.1333 1.14,-0.4c0.293,-0.28 0.44,-0.6467 0.44,-1.1c0,-0.4533 -0.147,-0.8133 -0.44,-1.08c-0.28,-0.28 -0.66,-0.42 -1.14,-0.42h-3.42zM103.405,26v-15.14h3v15.14zM108.1,26v-10.92h3v10.92zM108.1,14.1v-3h3v3zM117.075,26.24c-1.2,0 -2.246,-0.28 -3.14,-0.84c-0.88,-0.5733 -1.48,-1.34 -1.8,-2.3l2.2,-1.04c0.28,0.5867 0.66,1.0467 1.14,1.38c0.48,0.3333 1.014,0.5 1.6,0.5c0.427,0 0.754,-0.0867 0.98,-0.26c0.227,-0.1733 0.34,-0.4133 0.34,-0.72c0,-0.16 -0.04,-0.2933 -0.12,-0.4c-0.08,-0.12 -0.2,-0.2267 -0.36,-0.32c-0.16,-0.0933 -0.36,-0.1733 -0.6,-0.24l-1.86,-0.52c-0.893,-0.2533 -1.58,-0.66 -2.06,-1.22c-0.48,-0.5733 -0.72,-1.2467 -0.72,-2.02c0,-0.68 0.174,-1.2733 0.52,-1.78c0.347,-0.5067 0.834,-0.9 1.46,-1.18c0.627,-0.2933 1.347,-0.44 2.16,-0.44c1.067,0 2,0.2533 2.8,0.76c0.814,0.4933 1.387,1.1933 1.72,2.1l-2.22,1.04c-0.16,-0.4533 -0.453,-0.8133 -0.88,-1.08c-0.413,-0.28 -0.886,-0.42 -1.42,-0.42c-0.386,0 -0.693,0.08 -0.92,0.24c-0.213,0.16 -0.32,0.38 -0.32,0.66c0,0.1467 0.04,0.28 0.12,0.4c0.08,0.12 0.207,0.2267 0.38,0.32c0.187,0.0933 0.414,0.18 0.68,0.26l1.74,0.52c0.907,0.2667 1.6,0.6733 2.08,1.22c0.48,0.5333 0.72,1.1933 0.72,1.98c0,0.68 -0.18,1.2733 -0.54,1.78c-0.346,0.5067 -0.833,0.9067 -1.46,1.2c-0.626,0.28 -1.366,0.42 -2.22,0.42zM126.868,26.24c-1.2,0 -2.246,-0.28 -3.14,-0.84c-0.88,-0.5733 -1.48,-1.34 -1.8,-2.3l2.2,-1.04c0.28,0.5867 0.66,1.0467 1.14,1.38c0.48,0.3333 1.014,0.5 1.6,0.5c0.427,0 0.754,-0.0867 0.98,-0.26c0.227,-0.1733 0.34,-0.4133 0.34,-0.72c0,-0.16 -0.04,-0.2933 -0.12,-0.4c-0.08,-0.12 -0.2,-0.2267 -0.36,-0.32c-0.16,-0.0933 -0.36,-0.1733 -0.6,-0.24l-1.86,-0.52c-0.893,-0.2533 -1.58,-0.66 -2.06,-1.22c-0.48,-0.5733 -0.72,-1.2467 -0.72,-2.02c0,-0.68 0.174,-1.2733 0.52,-1.78c0.347,-0.5067 0.834,-0.9 1.46,-1.18c0.627,-0.2933 1.347,-0.44 2.16,-0.44c1.067,0 2,0.2533 2.8,0.76c0.814,0.4933 1.387,1.1933 1.72,2.1l-2.22,1.04c-0.16,-0.4533 -0.453,-0.8133 -0.88,-1.08c-0.413,-0.28 -0.886,-0.42 -1.42,-0.42c-0.386,0 -0.693,0.08 -0.92,0.24c-0.213,0.16 -0.32,0.38 -0.32,0.66c0,0.1467 0.04,0.28 0.12,0.4c0.08,0.12 0.207,0.2267 0.38,0.32c0.187,0.0933 0.414,0.18 0.68,0.26l1.74,0.52c0.907,0.2667 1.6,0.6733 2.08,1.22c0.48,0.5333 0.72,1.1933 0.72,1.98c0,0.68 -0.18,1.2733 -0.54,1.78c-0.346,0.5067 -0.833,0.9067 -1.46,1.2c-0.626,0.28 -1.366,0.42 -2.22,0.42z" fill="#181112"/>
</g>
</g></svg>