<svg viewBox="0 0 19.25 21.3889" fill="none" xmlns="http://www.w3.org/2000/svg" xmlns:xlink="http://www.w3.org/1999/xlink" x="0" y="0"><path id="Vector_8" d="M11.278,21.3844c-1.329,0 -2.577,-0.3 -3.743,-0.91c-1.167,-0.6 -2.123,-1.45 -2.868,-2.54l-4.667,-6.85l0.462,-0.46c0.324,-0.34 0.725,-0.54 1.203,-0.59c0.478,-0.05 0.911,0.07 1.3,0.34l2.674,1.85v-9.31c0,-0.27 0.093,-0.5 0.279,-0.69c0.187,-0.19 0.418,-0.28 0.693,-0.28c0.276,0 0.506,0.09 0.693,0.28c0.186,0.19 0.279,0.42 0.279,0.69v13.05l-3.597,-2.5l2.309,3.35c0.567,0.83 1.288,1.48 2.163,1.94c0.875,0.46 1.815,0.69 2.82,0.69c1.669,0 3.091,-0.59 4.265,-1.76c1.175,-1.18 1.763,-2.6 1.763,-4.27v-9.53c0,-0.27 0.093,-0.5 0.279,-0.69c0.186,-0.18 0.417,-0.28 0.693,-0.28c0.275,0 0.506,0.1 0.692,0.28c0.187,0.19 0.28,0.42 0.28,0.69v9.53c0,2.22 -0.774,4.11 -2.321,5.65c-1.548,1.55 -3.431,2.32 -5.651,2.32zM9.528,10.6944v-9.72c0,-0.28 0.093,-0.51 0.279,-0.7c0.187,-0.18 0.418,-0.27 0.693,-0.27c0.275,0 0.506,0.09 0.693,0.27c0.186,0.19 0.279,0.42 0.279,0.7v9.72zM13.417,10.6944v-8.75c0,-0.28 0.093,-0.51 0.279,-0.69c0.187,-0.19 0.417,-0.28 0.693,-0.28c0.275,0 0.506,0.09 0.693,0.28c0.186,0.18 0.279,0.41 0.279,0.69v8.75z" fill="currentColor"/></svg>