<svg viewBox="0 0 16.5234 16.5203" fill="none" xmlns="http://www.w3.org/2000/svg" xmlns:xlink="http://www.w3.org/1999/xlink" x="0" y="0"><path id="Vector_7" d="M2.333,14.1881c-0.729,-0.73 -1.3,-1.57 -1.713,-2.53c-0.413,-0.96 -0.62,-1.94 -0.62,-2.96c0,-1.03 0.194,-2.03 0.583,-3.03c0.389,-1 1.021,-1.93 1.896,-2.81c0.567,-0.56 1.268,-1.05 2.103,-1.46c0.834,-0.4 1.823,-0.72 2.965,-0.96c1.142,-0.23 2.447,-0.37 3.913,-0.42c1.467,-0.05 3.107,0.01 4.922,0.17c0.13,1.72 0.17,3.3 0.121,4.74c-0.048,1.44 -0.182,2.74 -0.401,3.9c-0.218,1.16 -0.526,2.17 -0.923,3.04c-0.397,0.86 -0.887,1.59 -1.471,2.17c-0.858,0.86 -1.77,1.49 -2.734,1.89c-0.964,0.39 -1.949,0.59 -2.953,0.59c-1.053,0 -2.082,-0.2 -3.087,-0.62c-1.005,-0.41 -1.872,-0.98 -2.601,-1.71zM5.056,13.7981c0.469,0.28 0.952,0.47 1.446,0.6c0.494,0.12 1,0.18 1.519,0.18c0.745,0 1.482,-0.15 2.212,-0.45c0.729,-0.3 1.426,-0.78 2.09,-1.45c0.292,-0.29 0.587,-0.7 0.887,-1.23c0.3,-0.52 0.559,-1.21 0.778,-2.06c0.219,-0.85 0.385,-1.88 0.498,-3.09c0.114,-1.21 0.13,-2.64 0.049,-4.31c-0.794,-0.04 -1.69,-0.05 -2.686,-0.04c-0.997,0.01 -1.989,0.09 -2.977,0.23c-0.989,0.15 -1.929,0.38 -2.82,0.71c-0.891,0.32 -1.62,0.77 -2.187,1.33c-0.73,0.73 -1.232,1.45 -1.507,2.17c-0.276,0.71 -0.414,1.4 -0.414,2.06c0,0.96 0.183,1.8 0.547,2.52c0.365,0.72 0.685,1.23 0.96,1.52c0.681,-1.3 1.58,-2.54 2.698,-3.73c1.118,-1.19 2.423,-2.17 3.913,-2.93c-1.166,1.02 -2.183,2.17 -3.05,3.46c-0.867,1.29 -1.519,2.79 -1.956,4.51z" fill="currentColor"/></svg>