<svg viewBox="0 0 13.5 13.5" fill="none" xmlns="http://www.w3.org/2000/svg" xmlns:xlink="http://www.w3.org/1999/xlink" x="0" y="0"><path id="Vector_2" d="M12.4499,13.5l-4.72,-4.725c-0.38,0.3 -0.81,0.5375 -1.3,0.7125c-0.49,0.175 -1,0.2625 -1.55,0.2625c-1.37,0 -2.52,-0.4719 -3.46,-1.4156c-0.95,-0.9438 -1.42,-2.0969 -1.42,-3.4594c0,-1.3625 0.47,-2.5156 1.42,-3.4594c0.94,-0.9437 2.09,-1.4156 3.46,-1.4156c1.36,0 2.51,0.4719 3.45,1.4156c0.95,0.9438 1.42,2.0969 1.42,3.4594c0,0.55 -0.09,1.0687 -0.26,1.5562c-0.18,0.4875 -0.41,0.9188 -0.71,1.2938l4.72,4.725zM4.8799,8.25c0.93,0 1.73,-0.3281 2.39,-0.9844c0.65,-0.6562 0.98,-1.4531 0.98,-2.3906c0,-0.9375 -0.33,-1.7344 -0.98,-2.3906c-0.66,-0.6563 -1.46,-0.9844 -2.39,-0.9844c-0.94,0 -1.74,0.3281 -2.4,0.9844c-0.65,0.6562 -0.98,1.4531 -0.98,2.3906c0,0.9375 0.33,1.7344 0.98,2.3906c0.66,0.6563 1.46,0.9844 2.4,0.9844z" fill="currentColor"/></svg>